# xmcd CD database file
#
# Track frame offsets:
#	150
#	26882
#	40728
#	63445
#	85008
#	114486
#	131012
#	157610
#	188393
#	208589
#
# Disc length: 3082 seconds
#
# Revision: 0
# Processed by: cddbd v1.5.2PL0 Copyright (c) Steve Scherf et al.
# Submitted via: CDex 1.70beta2
#
DISCID=760c080a
DTITLE=LUIS SALINAS - MUSICA ARGENTINA VOL 2
DYEAR=2003
DGENRE=Jazz
TTITLE0=Luis Salinas - Aire de tango
TTITLE1=Luis Salinas - Despues
TTITLE2=Luis Salinas - La cristalina
TTITLE3=Luis Salinas - Para Corrientes y el Chaco
TTITLE4=Luis Salinas - Balada para guitarra
TTITLE5=Luis Salinas - Salgán
TTITLE6=Luis Salinas - Zamba en mi
TTITLE7=Luis Salinas - La misteriosa
TTITLE8=Luis Salinas - Zamba triste version II
TTITLE9=Luis Salinas - La Pesada version II
EXTD=YEAR: 2003
EXTT0=
EXTT1=
EXTT2=
EXTT3=
EXTT4=
EXTT5=
EXTT6=
EXTT7=
EXTT8=
EXTT9=
PLAYORDER=
